<svg width="283" height="283" viewBox="0 0 283 283" fill="none" xmlns="http://www.w3.org/2000/svg">
<g clip-path="url(#clip0_871_16)">
<circle cx="141.5" cy="141.5" r="139.5" fill="white" stroke="#1B53FE" stroke-width="4"/>
<path d="M127.036 1.25778C129.413 1.19489 133.224 2.21369 134.582 0H127.036C127.036 0 127.086 1.25778 127.036 1.25778Z" stroke="#1B53FE" stroke-width="0.3"/>
<path d="M127.036 1.25778C96.7734 2.11307 69.2155 17.0932 46.5378 36.4756C43.2801 39.7332 39.6703 43.343 36.4756 46.5378C17.1309 69.1778 2.10049 96.8237 1.25778 127.036C1.19489 129.413 2.21369 133.224 0 134.582V148.418C2.05018 149.852 1.19489 153.6 1.25778 155.964C2.10049 186.176 17.1309 213.822 36.4756 236.462C39.7332 239.72 43.343 243.33 46.5378 246.524C69.2155 265.907 96.7734 280.887 127.036 281.742C129.413 281.805 133.224 280.786 134.582 283H148.418C149.852 280.95 153.6 281.805 155.964 281.742C186.176 280.9 213.822 265.869 236.462 246.524C239.72 243.267 243.33 239.657 246.524 236.462C265.907 213.784 280.887 186.227 281.742 155.964C281.805 153.587 280.786 149.776 283 148.418V134.582C280.95 133.148 281.805 129.4 281.742 127.036C280.9 96.8237 265.869 69.1778 246.524 46.5378C243.267 43.2801 239.657 39.6703 236.462 36.4756C213.784 17.0932 186.227 2.11307 155.964 1.25778C153.587 1.19489 149.776 2.21369 148.418 0H134.582C133.224 2.21369 129.413 1.19489 127.036 1.25778ZM153.449 5.03111C181.384 6.55302 206.515 19.2188 228.916 35.2178C231.469 37.0416 233.117 39.4188 235.204 41.5067C237.556 43.5191 239.531 45.5064 241.493 47.7956C243.657 49.9589 245.996 51.5815 247.782 54.0844C263.794 76.498 276.447 101.566 277.969 129.551C279.202 137.136 279.189 145.953 277.969 153.449C276.497 180.579 265.504 208.175 247.782 228.916C245.82 231.205 243.531 233.167 241.493 235.204C239.481 237.556 237.494 239.531 235.204 241.493C233.104 243.594 231.154 245.87 228.916 247.782C208.2 265.492 180.642 276.497 153.449 277.969C145.877 279.202 137.047 279.189 129.551 277.969C102.408 276.497 74.7749 265.467 54.0844 247.782C51.7953 245.82 49.8332 243.531 47.7956 241.493C45.4435 239.481 43.4688 237.494 41.5067 235.204C39.4062 233.104 37.1296 231.154 35.2178 228.916C17.4705 208.15 6.50271 180.617 5.03111 153.449C3.79849 145.864 3.81107 137.047 5.03111 129.551C6.55302 101.616 19.2188 76.4855 35.2178 54.0844C37.0416 51.5312 39.4188 49.8835 41.5067 47.7956C43.5191 45.4435 45.5064 43.4688 47.7956 41.5067C49.9589 39.3433 51.5815 37.0038 54.0844 35.2178C76.498 19.2063 101.566 6.55302 129.551 5.03111C137.136 3.79849 145.953 3.81107 153.449 5.03111Z" stroke="#1B53FE" stroke-width="0.3"/>
<path d="M155.964 1.25778C155.914 1.25778 155.964 0 155.964 0H148.418C149.776 2.21369 153.587 1.19489 155.964 1.25778Z" stroke="#1B53FE" stroke-width="0.3"/>
<path d="M129.551 5.03108C137.362 4.60344 145.638 4.60344 153.449 5.03108C145.953 3.81104 137.136 3.79846 129.551 5.03108Z" stroke="#1B53FE" stroke-width="0.3"/>
<path d="M47.7956 41.5067C49.9086 39.6955 51.9714 36.9787 54.0845 35.2178C51.5815 37.0038 49.9589 39.3433 47.7956 41.5067Z" stroke="#1B53FE" stroke-width="0.3"/>
<path d="M235.204 41.5067C233.117 39.4188 231.469 37.0416 228.916 35.2178C230.941 36.9158 233.041 39.6577 235.204 41.5067Z" stroke="#1B53FE" stroke-width="0.3"/>
<path d="M36.4756 46.5378C39.6703 43.3431 43.2801 39.7332 46.5378 36.4756C42.9405 39.5446 39.6074 42.8777 36.4756 46.5378Z" stroke="#1B53FE" stroke-width="0.3"/>
<path d="M246.524 46.5378C243.455 42.9406 240.122 39.6075 236.462 36.4756C239.657 39.6703 243.267 43.2802 246.524 46.5378Z" stroke="#1B53FE" stroke-width="0.3"/>
<path d="M35.2178 54.0844C36.9158 52.0594 39.6577 49.9589 41.5067 47.7955C39.4188 49.8834 37.0416 51.5311 35.2178 54.0844Z" stroke="#1B53FE" stroke-width="0.3"/>
<path d="M247.782 54.0844C245.996 51.5814 243.657 49.9589 241.493 47.7955C243.305 49.9086 246.021 51.9714 247.782 54.0844Z" stroke="#1B53FE" stroke-width="0.3"/>
<path d="M71.6933 164.769C71.8694 166.832 71.6933 168.982 71.6933 171.058C77.9067 187.447 53.858 180.491 59.1155 194.956C67.1402 194.452 79.6047 196.276 83.856 186.994C88.1073 177.724 84.4723 167.372 84.3591 157.31C84.2459 147.261 100.144 147.588 95.5911 135.84C79.1645 135.01 85.9062 116.697 85.5163 104.408C85.139 92.1196 71.5675 84.7365 59.1155 88.0444C53.4052 100.811 69.1275 95.3647 71.6933 103.138C74.2592 110.911 69.5425 120.684 70.4607 128.268C71.3915 135.84 76.8628 139.488 83.0133 142.129C69.8444 142.582 70.9261 155.751 71.6933 164.769Z" stroke="#222222" stroke-width="0.3"/>
<path d="M45.28 122.004C49.8961 122.004 54.4995 122.004 59.1156 122.004C59.1156 117.816 59.1156 113.615 59.1156 109.427C54.4995 109.427 49.8961 109.427 45.28 109.427C46.7642 112.584 43.3053 119.187 45.28 122.004Z" stroke="#1B53FE" stroke-width="0.3"/>
<path d="M59.1156 122.004C54.4995 122.004 49.896 122.004 45.28 122.004C46.8271 124.206 57.5308 124.268 59.1156 122.004Z" stroke="#1B53FE" stroke-width="0.3"/>
<path d="M0 134.582C2.21369 133.224 1.19489 129.413 1.25778 127.036C1.25778 127.036 0.628889 127.036 0 127.036V134.582Z" stroke="#1B53FE" stroke-width="0.3"/>
<path d="M283 134.582V127.036C283 127.036 281.742 127.086 281.742 127.036C281.805 129.4 280.95 133.148 283 134.582Z" stroke="#1B53FE" stroke-width="0.3"/>
<path d="M5.03111 153.449C4.60347 145.638 4.60347 137.362 5.03111 129.551C3.81107 137.048 3.79849 145.865 5.03111 153.449Z" stroke="#1B53FE" stroke-width="0.3"/>
<path d="M277.969 153.449C279.189 145.953 279.202 137.136 277.969 129.551C278.397 137.362 278.397 145.638 277.969 153.449Z" stroke="#1B53FE" stroke-width="0.3"/>
<path d="M0 155.964C0.628889 155.964 1.25778 155.964 1.25778 155.964C1.19489 153.6 2.05018 149.852 0 148.418V155.964Z" stroke="#1B53FE" stroke-width="0.3"/>
<path d="M281.742 155.964C281.742 155.914 283 155.964 283 155.964V148.418C280.786 149.776 281.805 153.587 281.742 155.964Z" stroke="#1B53FE" stroke-width="0.3"/>
<path d="M36.4756 166.027C34.4757 163.989 33.5072 161.398 33.96 158.48C30.3628 161.071 34.2116 164.303 36.4756 166.027Z" stroke="#1B53FE" stroke-width="0.3"/>
<path d="M36.4756 166.027C41.5821 169.901 50.1602 171.989 56.6 172.316C58.6502 172.416 60.8513 172.454 62.8889 172.316C66.0585 172.102 68.4483 170.731 71.6933 171.058C71.6933 168.982 71.8694 166.832 71.6933 164.769C58.4993 165.737 45.519 165.511 33.96 158.48C33.5072 161.398 34.4757 163.989 36.4756 166.027Z" stroke="#1B53FE" stroke-width="0.3"/>
<path d="M62.8889 172.316C60.8513 172.454 58.6502 172.416 56.6 172.316C59.0653 172.731 60.323 172.781 62.8889 172.316Z" stroke="#1B53FE" stroke-width="0.3"/>
<path d="M41.5067 235.204C39.5948 232.966 37.3183 231.016 35.2178 228.916C37.1296 231.154 39.4062 233.104 41.5067 235.204Z" stroke="#1B53FE" stroke-width="0.3"/>
<path d="M241.493 235.204C243.531 233.167 245.82 231.205 247.782 228.916C245.745 230.953 243.455 232.915 241.493 235.204Z" stroke="#1B53FE" stroke-width="0.3"/>
<path d="M46.5378 246.524C43.343 243.33 39.7332 239.72 36.4756 236.462C39.5445 240.059 42.8776 243.393 46.5378 246.524Z" stroke="#1B53FE" stroke-width="0.3"/>
<path d="M236.462 246.524C240.059 243.455 243.393 240.122 246.524 236.462C243.33 239.657 239.72 243.267 236.462 246.524Z" stroke="#1B53FE" stroke-width="0.3"/>
<path d="M54.0845 247.782C52.0469 245.745 50.0847 243.455 47.7956 241.493C49.8332 243.531 51.7953 245.82 54.0845 247.782Z" stroke="#1B53FE" stroke-width="0.3"/>
<path d="M228.916 247.782C231.154 245.87 233.104 243.594 235.204 241.493C232.966 243.405 231.016 245.682 228.916 247.782Z" stroke="#1B53FE" stroke-width="0.3"/>
<path d="M153.449 277.969C145.638 278.397 137.362 278.397 129.551 277.969C137.047 279.189 145.877 279.201 153.449 277.969Z" stroke="#1B53FE" stroke-width="0.3"/>
<path d="M127.036 283H134.582C133.224 280.786 129.413 281.805 127.036 281.742C127.036 281.742 127.036 282.371 127.036 283Z" stroke="#1B53FE" stroke-width="0.3"/>
<path d="M148.418 283H155.964C155.964 283 155.914 281.742 155.964 281.742C153.6 281.805 149.852 280.95 148.418 283Z" stroke="#1B53FE" stroke-width="0.3"/>
<path d="M127.036 1.25778C129.413 1.19489 133.224 2.21369 134.582 0H127.036C127.036 0 127.086 1.25778 127.036 1.25778Z" fill="#1B53FE"/>
<path d="M155.964 1.25778C155.914 1.25778 155.964 0 155.964 0H148.418C149.776 2.21369 153.587 1.19489 155.964 1.25778Z" fill="#1B53FE"/>
<path d="M129.551 5.03108C137.362 4.60344 145.638 4.60344 153.449 5.03108C145.953 3.81104 137.136 3.79846 129.551 5.03108Z" fill="#1B53FE"/>
<path d="M47.7956 41.5067C49.9086 39.6955 51.9714 36.9787 54.0845 35.2178C51.5815 37.0038 49.9589 39.3433 47.7956 41.5067Z" fill="#1B53FE"/>
<path d="M235.204 41.5067C233.117 39.4188 231.469 37.0416 228.916 35.2178C230.941 36.9158 233.041 39.6577 235.204 41.5067Z" fill="#1B53FE"/>
<path d="M36.4756 46.5378C39.6703 43.3431 43.2801 39.7332 46.5378 36.4756C42.9405 39.5446 39.6074 42.8777 36.4756 46.5378Z" fill="#1B53FE"/>
<path d="M246.524 46.5378C243.455 42.9406 240.122 39.6075 236.462 36.4756C239.657 39.6703 243.267 43.2802 246.524 46.5378Z" fill="#1B53FE"/>
<path d="M35.2178 54.0844C36.9158 52.0594 39.6577 49.9589 41.5067 47.7955C39.4188 49.8834 37.0416 51.5311 35.2178 54.0844Z" fill="#1B53FE"/>
<path d="M247.782 54.0844C245.996 51.5814 243.657 49.9589 241.493 47.7955C243.305 49.9086 246.021 51.9714 247.782 54.0844Z" fill="#1B53FE"/>
<path d="M71.6933 164.769C71.8694 166.832 71.6933 168.982 71.6933 171.058C77.9067 187.447 53.858 180.491 59.1155 194.956C67.1402 194.452 79.6047 196.276 83.856 186.994C88.1073 177.724 84.4723 167.372 84.3591 157.31C84.2459 147.261 100.144 147.588 95.5911 135.84C79.1645 135.01 85.9062 116.697 85.5163 104.408C85.139 92.1196 71.5675 84.7365 59.1155 88.0444C53.4052 100.811 69.1275 95.3647 71.6933 103.138C74.2592 110.911 69.5425 120.684 70.4607 128.268C71.3915 135.84 76.8628 139.488 83.0133 142.129C69.8444 142.582 70.9261 155.751 71.6933 164.769Z" fill="#222222"/>
<path d="M45.28 122.004C49.8961 122.004 54.4995 122.004 59.1156 122.004C59.1156 117.816 59.1156 113.615 59.1156 109.427C54.4995 109.427 49.8961 109.427 45.28 109.427C46.7642 112.584 43.3053 119.187 45.28 122.004Z" fill="#1B53FE"/>
<path d="M59.1156 122.004C54.4995 122.004 49.896 122.004 45.28 122.004C46.8271 124.206 57.5308 124.268 59.1156 122.004Z" fill="#1B53FE"/>
<path d="M0 134.582C2.21369 133.224 1.19489 129.413 1.25778 127.036C1.25778 127.036 0.628889 127.036 0 127.036V134.582Z" fill="#1B53FE"/>
<path d="M283 134.582V127.036C283 127.036 281.742 127.086 281.742 127.036C281.805 129.4 280.95 133.148 283 134.582Z" fill="#1B53FE"/>
<path d="M5.03111 153.449C4.60347 145.638 4.60347 137.362 5.03111 129.551C3.81107 137.048 3.79849 145.865 5.03111 153.449Z" fill="#1B53FE"/>
<path d="M277.969 153.449C279.189 145.953 279.202 137.136 277.969 129.551C278.397 137.362 278.397 145.638 277.969 153.449Z" fill="#1B53FE"/>
<path d="M0 155.964C0.628889 155.964 1.25778 155.964 1.25778 155.964C1.19489 153.6 2.05018 149.852 0 148.418V155.964Z" fill="#1B53FE"/>
<path d="M281.742 155.964C281.742 155.914 283 155.964 283 155.964V148.418C280.786 149.776 281.805 153.587 281.742 155.964Z" fill="#1B53FE"/>
<path d="M36.4756 166.027C34.4757 163.989 33.5072 161.398 33.96 158.48C30.3628 161.071 34.2116 164.303 36.4756 166.027Z" fill="#1B53FE"/>
<path d="M36.4756 166.027C41.5821 169.901 50.1602 171.989 56.6 172.316C58.6502 172.416 60.8513 172.454 62.8889 172.316C66.0585 172.102 68.4483 170.731 71.6933 171.058C71.6933 168.982 71.8694 166.832 71.6933 164.769C58.4993 165.737 45.519 165.511 33.96 158.48C33.5072 161.398 34.4757 163.989 36.4756 166.027Z" fill="#1B53FE"/>
<path d="M62.8889 172.316C60.8513 172.454 58.6502 172.416 56.6 172.316C59.0653 172.731 60.323 172.781 62.8889 172.316Z" fill="#1B53FE"/>
<path d="M41.5067 235.204C39.5948 232.966 37.3183 231.016 35.2178 228.916C37.1296 231.154 39.4062 233.104 41.5067 235.204Z" fill="#1B53FE"/>
<path d="M241.493 235.204C243.531 233.167 245.82 231.205 247.782 228.916C245.745 230.953 243.455 232.915 241.493 235.204Z" fill="#1B53FE"/>
<path d="M46.5378 246.524C43.343 243.33 39.7332 239.72 36.4756 236.462C39.5445 240.059 42.8776 243.393 46.5378 246.524Z" fill="#1B53FE"/>
<path d="M236.462 246.524C240.059 243.455 243.393 240.122 246.524 236.462C243.33 239.657 239.72 243.267 236.462 246.524Z" fill="#1B53FE"/>
<path d="M54.0845 247.782C52.0469 245.745 50.0847 243.455 47.7956 241.493C49.8332 243.531 51.7953 245.82 54.0845 247.782Z" fill="#1B53FE"/>
<path d="M228.916 247.782C231.154 245.87 233.104 243.594 235.204 241.493C232.966 243.405 231.016 245.682 228.916 247.782Z" fill="#1B53FE"/>
<path d="M153.449 277.969C145.638 278.397 137.362 278.397 129.551 277.969C137.047 279.189 145.877 279.201 153.449 277.969Z" fill="#1B53FE"/>
<path d="M127.036 283H134.582C133.224 280.786 129.413 281.805 127.036 281.742C127.036 281.742 127.036 282.371 127.036 283Z" fill="#1B53FE"/>
<path d="M148.418 283H155.964C155.964 283 155.914 281.742 155.964 281.742C153.6 281.805 149.852 280.95 148.418 283Z" fill="#1B53FE"/>
<mask id="path-63-outside-1_871_16" maskUnits="userSpaceOnUse" x="105" y="104.125" width="143" height="44" fill="black">
<rect fill="white" x="105" y="104.125" width="143" height="44"/>
<path d="M122.649 146.814C119.367 146.814 116.502 146.355 114.052 145.436C111.624 144.517 109.677 143.325 108.211 141.859C106.833 140.766 106.144 139.486 106.144 138.02C106.144 137.298 106.406 136.631 106.931 136.019C107.456 135.384 108.211 135.067 109.196 135.067C110.071 135.067 110.814 135.275 111.427 135.691C112.061 136.084 112.652 136.566 113.199 137.134C114.205 138.316 115.474 139.322 117.005 140.153C118.536 140.984 120.461 141.4 122.78 141.4C124.355 141.4 125.81 141.159 127.144 140.678C128.5 140.197 129.583 139.508 130.392 138.611C131.224 137.714 131.639 136.642 131.639 135.395C131.639 133.536 130.775 132.103 129.047 131.097C127.341 130.069 124.814 129.139 121.467 128.308C116.524 127.083 112.892 125.464 110.574 123.452C108.255 121.417 107.096 118.836 107.096 115.708C107.096 113.498 107.806 111.606 109.228 110.031C110.672 108.434 112.597 107.22 115.003 106.389C117.41 105.536 120.078 105.109 123.01 105.109C125.613 105.109 128.03 105.514 130.261 106.323C132.514 107.111 134.341 108.227 135.741 109.67C136.353 110.152 136.835 110.698 137.185 111.311C137.556 111.902 137.742 112.558 137.742 113.28C137.742 114.155 137.458 114.855 136.889 115.38C136.342 115.883 135.642 116.134 134.789 116.134C133.936 116.134 133.192 115.905 132.558 115.445C131.924 114.986 131.388 114.516 130.95 114.034C130.206 113.028 129.135 112.197 127.735 111.541C126.335 110.862 124.661 110.523 122.714 110.523C121.249 110.523 119.892 110.731 118.646 111.147C117.399 111.562 116.403 112.153 115.66 112.919C114.916 113.662 114.544 114.559 114.544 115.609C114.544 117.228 115.342 118.552 116.939 119.58C118.558 120.586 120.997 121.527 124.256 122.402C127.363 123.211 130.021 124.152 132.23 125.223C134.439 126.295 136.135 127.608 137.316 129.161C138.497 130.714 139.088 132.65 139.088 134.969C139.088 137.419 138.366 139.53 136.922 141.302C135.478 143.073 133.51 144.441 131.016 145.403C128.544 146.344 125.755 146.814 122.649 146.814ZM177.717 146.814C175.399 146.814 173.167 146.431 171.024 145.666C168.88 144.878 166.955 143.653 165.249 141.991C163.542 140.328 162.186 138.173 161.18 135.527C160.195 132.88 159.703 129.686 159.703 125.945C159.703 122.183 160.228 118.989 161.278 116.364C162.328 113.717 163.739 111.562 165.511 109.9C167.305 108.237 169.306 107.023 171.516 106.258C173.725 105.492 175.989 105.109 178.308 105.109C180.802 105.109 182.978 105.459 184.838 106.159C186.697 106.859 188.294 107.855 189.628 109.145C190.263 109.692 190.722 110.25 191.006 110.819C191.291 111.387 191.433 111.945 191.433 112.492C191.433 113.345 191.105 114.045 190.449 114.592C189.814 115.139 189.103 115.412 188.316 115.412C187.725 115.412 187.145 115.259 186.577 114.953C186.008 114.647 185.505 114.253 185.067 113.772C184.345 112.941 183.449 112.208 182.377 111.573C181.305 110.917 179.959 110.589 178.341 110.589C176.459 110.589 174.655 111.114 172.927 112.164C171.199 113.192 169.788 114.833 168.694 117.086C167.6 119.339 167.053 122.292 167.053 125.945C167.053 129.686 167.589 132.683 168.661 134.936C169.733 137.189 171.111 138.819 172.795 139.825C174.48 140.831 176.252 141.334 178.111 141.334C179.861 141.334 181.37 140.941 182.639 140.153C183.908 139.344 184.892 138.141 185.592 136.544C186.314 134.947 186.697 132.945 186.741 130.539H180.309C179.216 130.539 178.352 130.342 177.717 129.948C177.105 129.533 176.799 128.877 176.799 127.98C176.799 127.061 177.094 126.405 177.684 126.011C178.297 125.595 179.15 125.387 180.244 125.387H189.891C191.313 125.387 192.341 125.737 192.975 126.437C193.609 127.116 193.927 128.111 193.927 129.423C193.927 133.317 193.216 136.555 191.794 139.136C190.372 141.695 188.436 143.62 185.986 144.911C183.536 146.18 180.78 146.814 177.717 146.814ZM227.93 140.744H242.17C243.592 140.744 244.675 140.984 245.419 141.466C246.184 141.925 246.567 142.581 246.567 143.434C246.567 144.287 246.184 144.955 245.419 145.436C244.675 145.895 243.592 146.125 242.17 146.125H225.042C222.111 146.125 220.645 144.659 220.645 141.728V109.572C220.645 106.641 221.859 105.175 224.287 105.175C226.716 105.175 227.93 106.641 227.93 109.572V140.744Z"/>
</mask>
<path d="M122.649 146.814C119.367 146.814 116.502 146.355 114.052 145.436C111.624 144.517 109.677 143.325 108.211 141.859C106.833 140.766 106.144 139.486 106.144 138.02C106.144 137.298 106.406 136.631 106.931 136.019C107.456 135.384 108.211 135.067 109.196 135.067C110.071 135.067 110.814 135.275 111.427 135.691C112.061 136.084 112.652 136.566 113.199 137.134C114.205 138.316 115.474 139.322 117.005 140.153C118.536 140.984 120.461 141.4 122.78 141.4C124.355 141.4 125.81 141.159 127.144 140.678C128.5 140.197 129.583 139.508 130.392 138.611C131.224 137.714 131.639 136.642 131.639 135.395C131.639 133.536 130.775 132.103 129.047 131.097C127.341 130.069 124.814 129.139 121.467 128.308C116.524 127.083 112.892 125.464 110.574 123.452C108.255 121.417 107.096 118.836 107.096 115.708C107.096 113.498 107.806 111.606 109.228 110.031C110.672 108.434 112.597 107.22 115.003 106.389C117.41 105.536 120.078 105.109 123.01 105.109C125.613 105.109 128.03 105.514 130.261 106.323C132.514 107.111 134.341 108.227 135.741 109.67C136.353 110.152 136.835 110.698 137.185 111.311C137.556 111.902 137.742 112.558 137.742 113.28C137.742 114.155 137.458 114.855 136.889 115.38C136.342 115.883 135.642 116.134 134.789 116.134C133.936 116.134 133.192 115.905 132.558 115.445C131.924 114.986 131.388 114.516 130.95 114.034C130.206 113.028 129.135 112.197 127.735 111.541C126.335 110.862 124.661 110.523 122.714 110.523C121.249 110.523 119.892 110.731 118.646 111.147C117.399 111.562 116.403 112.153 115.66 112.919C114.916 113.662 114.544 114.559 114.544 115.609C114.544 117.228 115.342 118.552 116.939 119.58C118.558 120.586 120.997 121.527 124.256 122.402C127.363 123.211 130.021 124.152 132.23 125.223C134.439 126.295 136.135 127.608 137.316 129.161C138.497 130.714 139.088 132.65 139.088 134.969C139.088 137.419 138.366 139.53 136.922 141.302C135.478 143.073 133.51 144.441 131.016 145.403C128.544 146.344 125.755 146.814 122.649 146.814ZM177.717 146.814C175.399 146.814 173.167 146.431 171.024 145.666C168.88 144.878 166.955 143.653 165.249 141.991C163.542 140.328 162.186 138.173 161.18 135.527C160.195 132.88 159.703 129.686 159.703 125.945C159.703 122.183 160.228 118.989 161.278 116.364C162.328 113.717 163.739 111.562 165.511 109.9C167.305 108.237 169.306 107.023 171.516 106.258C173.725 105.492 175.989 105.109 178.308 105.109C180.802 105.109 182.978 105.459 184.838 106.159C186.697 106.859 188.294 107.855 189.628 109.145C190.263 109.692 190.722 110.25 191.006 110.819C191.291 111.387 191.433 111.945 191.433 112.492C191.433 113.345 191.105 114.045 190.449 114.592C189.814 115.139 189.103 115.412 188.316 115.412C187.725 115.412 187.145 115.259 186.577 114.953C186.008 114.647 185.505 114.253 185.067 113.772C184.345 112.941 183.449 112.208 182.377 111.573C181.305 110.917 179.959 110.589 178.341 110.589C176.459 110.589 174.655 111.114 172.927 112.164C171.199 113.192 169.788 114.833 168.694 117.086C167.6 119.339 167.053 122.292 167.053 125.945C167.053 129.686 167.589 132.683 168.661 134.936C169.733 137.189 171.111 138.819 172.795 139.825C174.48 140.831 176.252 141.334 178.111 141.334C179.861 141.334 181.37 140.941 182.639 140.153C183.908 139.344 184.892 138.141 185.592 136.544C186.314 134.947 186.697 132.945 186.741 130.539H180.309C179.216 130.539 178.352 130.342 177.717 129.948C177.105 129.533 176.799 128.877 176.799 127.98C176.799 127.061 177.094 126.405 177.684 126.011C178.297 125.595 179.15 125.387 180.244 125.387H189.891C191.313 125.387 192.341 125.737 192.975 126.437C193.609 127.116 193.927 128.111 193.927 129.423C193.927 133.317 193.216 136.555 191.794 139.136C190.372 141.695 188.436 143.62 185.986 144.911C183.536 146.18 180.78 146.814 177.717 146.814ZM227.93 140.744H242.17C243.592 140.744 244.675 140.984 245.419 141.466C246.184 141.925 246.567 142.581 246.567 143.434C246.567 144.287 246.184 144.955 245.419 145.436C244.675 145.895 243.592 146.125 242.17 146.125H225.042C222.111 146.125 220.645 144.659 220.645 141.728V109.572C220.645 106.641 221.859 105.175 224.287 105.175C226.716 105.175 227.93 106.641 227.93 109.572V140.744Z" fill="#1B53FE"/>
<path d="M114.052 145.436L113.72 146.313L113.723 146.314L114.052 145.436ZM108.211 141.859L108.874 141.196L108.836 141.158L108.794 141.125L108.211 141.859ZM106.931 136.019L107.643 136.629L107.649 136.623L107.654 136.616L106.931 136.019ZM111.427 135.691L110.9 136.466L110.916 136.477L110.932 136.487L111.427 135.691ZM113.199 137.134L113.912 136.526L113.894 136.505L113.874 136.485L113.199 137.134ZM127.144 140.678L126.83 139.795L126.826 139.796L127.144 140.678ZM130.392 138.611L129.705 137.974L129.696 137.983L130.392 138.611ZM129.047 131.097L128.563 131.9L128.575 131.907L129.047 131.097ZM121.467 128.308L121.693 127.398L121.693 127.398L121.467 128.308ZM110.574 123.452L109.955 124.156L109.959 124.16L110.574 123.452ZM109.228 110.031L108.533 109.403L108.532 109.403L109.228 110.031ZM115.003 106.389L115.309 107.275L115.317 107.273L115.003 106.389ZM130.261 106.323L129.941 107.205L129.952 107.208L130.261 106.323ZM135.741 109.67L135.068 110.323L135.112 110.368L135.162 110.407L135.741 109.67ZM137.185 111.311L136.371 111.776L136.381 111.793L136.391 111.81L137.185 111.311ZM136.889 115.38L137.524 116.07L137.525 116.069L136.889 115.38ZM132.558 115.445L133.108 114.686H133.108L132.558 115.445ZM130.95 114.034L130.196 114.592L130.225 114.63L130.257 114.665L130.95 114.034ZM127.735 111.541L127.326 112.384L127.337 112.389L127.735 111.541ZM118.646 111.147L118.349 110.257H118.349L118.646 111.147ZM115.66 112.919L116.323 113.582L116.332 113.572L115.66 112.919ZM116.939 119.58L116.432 120.368L116.438 120.372L116.444 120.376L116.939 119.58ZM124.256 122.402L124.013 123.307L124.02 123.309L124.256 122.402ZM137.316 129.161L138.062 128.593V128.593L137.316 129.161ZM136.922 141.302L136.195 140.709V140.709L136.922 141.302ZM131.016 145.403L131.349 146.279L131.353 146.278L131.016 145.403ZM122.649 146.814V145.877C119.452 145.877 116.703 145.429 114.381 144.558L114.052 145.436L113.723 146.314C116.301 147.281 119.282 147.752 122.649 147.752V146.814ZM114.052 145.436L114.384 144.559C112.049 143.676 110.225 142.548 108.874 141.196L108.211 141.859L107.548 142.522C109.128 144.102 111.198 145.359 113.72 146.313L114.052 145.436ZM108.211 141.859L108.794 141.125C107.59 140.169 107.081 139.142 107.081 138.02H106.144H105.206C105.206 139.83 106.076 141.362 107.628 142.594L108.211 141.859ZM106.144 138.02H107.081C107.081 137.549 107.246 137.093 107.643 136.629L106.931 136.019L106.22 135.409C105.567 136.17 105.206 137.048 105.206 138.02H106.144ZM106.931 136.019L107.654 136.616C107.965 136.24 108.43 136.005 109.196 136.005V135.067V134.13C107.992 134.13 106.948 134.529 106.209 135.421L106.931 136.019ZM109.196 135.067V136.005C109.918 136.005 110.47 136.174 110.9 136.466L111.427 135.691L111.953 134.915C111.159 134.376 110.223 134.13 109.196 134.13V135.067ZM111.427 135.691L110.932 136.487C111.497 136.837 112.027 137.269 112.523 137.784L113.199 137.134L113.874 136.485C113.277 135.863 112.626 135.331 111.921 134.894L111.427 135.691ZM113.199 137.134L112.485 137.742C113.575 139.021 114.937 140.098 116.558 140.977L117.005 140.153L117.452 139.329C116.01 138.546 114.835 137.61 113.912 136.526L113.199 137.134ZM117.005 140.153L116.558 140.977C118.264 141.903 120.355 142.338 122.78 142.338V141.4V140.463C120.568 140.463 118.808 140.065 117.452 139.329L117.005 140.153ZM122.78 141.4V142.338C124.451 142.338 126.015 142.082 127.462 141.56L127.144 140.678L126.826 139.796C125.604 140.237 124.258 140.463 122.78 140.463V141.4ZM127.144 140.678L127.457 141.562C128.932 141.038 130.156 140.272 131.088 139.239L130.392 138.611L129.696 137.983C129.01 138.744 128.068 139.355 126.83 139.795L127.144 140.678ZM130.392 138.611L131.08 139.248C132.075 138.174 132.577 136.873 132.577 135.395H131.639H130.702C130.702 136.411 130.372 137.254 129.705 137.974L130.392 138.611ZM131.639 135.395H132.577C132.577 133.173 131.509 131.445 129.519 130.287L129.047 131.097L128.575 131.907C130.042 132.761 130.702 133.899 130.702 135.395H131.639ZM129.047 131.097L129.531 130.294C127.707 129.195 125.075 128.238 121.693 127.398L121.467 128.308L121.241 129.218C124.554 130.04 126.975 130.943 128.563 131.9L129.047 131.097ZM121.467 128.308L121.693 127.398C116.81 126.188 113.344 124.615 111.188 122.744L110.574 123.452L109.959 124.16C112.44 126.313 116.238 127.978 121.242 129.218L121.467 128.308ZM110.574 123.452L111.192 122.747C109.079 120.893 108.033 118.57 108.033 115.708H107.096H106.158C106.158 119.101 107.43 121.941 109.955 124.156L110.574 123.452ZM107.096 115.708H108.033C108.033 113.72 108.665 112.055 109.924 110.659L109.228 110.031L108.532 109.403C106.948 111.158 106.158 113.277 106.158 115.708H107.096ZM109.228 110.031L109.924 110.66C111.244 109.2 113.025 108.064 115.309 107.275L115.003 106.389L114.697 105.503C112.169 106.376 110.101 107.669 108.533 109.403L109.228 110.031ZM115.003 106.389L115.317 107.273C117.609 106.46 120.17 106.047 123.01 106.047V105.109V104.172C119.987 104.172 117.211 104.612 114.69 105.505L115.003 106.389ZM123.01 105.109V106.047C125.514 106.047 127.822 106.436 129.941 107.205L130.261 106.323L130.581 105.442C128.238 104.592 125.711 104.172 123.01 104.172V105.109ZM130.261 106.323L129.952 107.208C132.093 107.957 133.787 109.002 135.068 110.323L135.741 109.67L136.414 109.018C134.895 107.451 132.936 106.265 130.57 105.438L130.261 106.323ZM135.741 109.67L135.162 110.407C135.689 110.822 136.087 111.279 136.371 111.776L137.185 111.311L137.999 110.846C137.583 110.118 137.018 109.481 136.32 108.933L135.741 109.67ZM137.185 111.311L136.391 111.81C136.666 112.246 136.805 112.728 136.805 113.28H137.742H138.68C138.68 112.387 138.447 111.557 137.978 110.811L137.185 111.311ZM137.742 113.28H136.805C136.805 113.931 136.604 114.367 136.253 114.691L136.889 115.38L137.525 116.069C138.312 115.342 138.68 114.379 138.68 113.28H137.742ZM136.889 115.38L136.255 114.69C135.906 115.01 135.445 115.197 134.789 115.197V116.134V117.072C135.84 117.072 136.778 116.756 137.524 116.07L136.889 115.38ZM134.789 116.134V115.197C134.115 115.197 133.568 115.019 133.108 114.686L132.558 115.445L132.008 116.205C132.817 116.79 133.757 117.072 134.789 117.072V116.134ZM132.558 115.445L133.108 114.686C132.516 114.257 132.03 113.829 131.644 113.404L130.95 114.034L130.257 114.665C130.745 115.202 131.332 115.715 132.008 116.205L132.558 115.445ZM130.95 114.034L131.704 113.477C130.848 112.319 129.641 111.399 128.133 110.692L127.735 111.541L127.337 112.389C128.628 112.995 129.565 113.737 130.196 114.592L130.95 114.034ZM127.735 111.541L128.143 110.697C126.588 109.944 124.768 109.586 122.714 109.586V110.523V111.461C124.554 111.461 126.081 111.781 127.326 112.384L127.735 111.541ZM122.714 110.523V109.586C121.159 109.586 119.702 109.807 118.349 110.257L118.646 111.147L118.942 112.036C120.083 111.656 121.338 111.461 122.714 111.461V110.523ZM118.646 111.147L118.349 110.257C116.992 110.71 115.857 111.37 114.987 112.266L115.66 112.919L116.332 113.572C116.95 112.936 117.805 112.415 118.942 112.036L118.646 111.147ZM115.66 112.919L114.997 112.256C114.077 113.175 113.606 114.31 113.606 115.609H114.544H115.481C115.481 114.809 115.754 114.15 116.323 113.582L115.66 112.919ZM114.544 115.609H113.606C113.606 117.606 114.621 119.202 116.432 120.368L116.939 119.58L117.447 118.791C116.064 117.901 115.481 116.85 115.481 115.609H114.544ZM116.939 119.58L116.444 120.376C118.179 121.454 120.722 122.423 124.013 123.307L124.256 122.402L124.5 121.496C121.272 120.63 118.937 119.718 117.434 118.783L116.939 119.58ZM124.256 122.402L124.02 123.309C127.084 124.107 129.681 125.029 131.821 126.067L132.23 125.223L132.639 124.38C130.361 123.274 127.642 122.315 124.493 121.494L124.256 122.402ZM132.23 125.223L131.821 126.067C133.931 127.091 135.498 128.319 136.57 129.728L137.316 129.161L138.062 128.593C136.772 126.897 134.948 125.5 132.639 124.38L132.23 125.223ZM137.316 129.161L136.57 129.728C137.605 131.089 138.15 132.815 138.15 134.969H139.088H140.025C140.025 132.485 139.39 130.339 138.062 128.593L137.316 129.161ZM139.088 134.969H138.15C138.15 137.22 137.493 139.117 136.195 140.709L136.922 141.302L137.649 141.894C139.239 139.942 140.025 137.618 140.025 134.969H139.088ZM136.922 141.302L136.195 140.709C134.871 142.335 133.046 143.615 130.678 144.529L131.016 145.403L131.353 146.278C133.973 145.267 136.086 143.812 137.649 141.894L136.922 141.302ZM131.016 145.403L130.682 144.527C128.334 145.421 125.66 145.877 122.649 145.877V146.814V147.752C125.849 147.752 128.754 147.267 131.349 146.279L131.016 145.403ZM171.024 145.666L170.7 146.546L170.708 146.549L171.024 145.666ZM165.249 141.991L164.594 142.662V142.662L165.249 141.991ZM161.18 135.527L160.301 135.853L160.303 135.86L161.18 135.527ZM161.278 116.364L162.149 116.712L162.15 116.71L161.278 116.364ZM165.511 109.9L164.874 109.212L164.87 109.216L165.511 109.9ZM189.628 109.145L188.976 109.819L188.996 109.838L189.016 109.855L189.628 109.145ZM191.006 110.819L191.845 110.399V110.399L191.006 110.819ZM190.449 114.592L189.848 113.872L189.842 113.877L189.836 113.882L190.449 114.592ZM186.577 114.953L187.021 114.128V114.128L186.577 114.953ZM185.067 113.772L184.359 114.387L184.366 114.395L184.374 114.403L185.067 113.772ZM182.377 111.573L181.887 112.373L181.899 112.38L182.377 111.573ZM172.927 112.164L173.406 112.97L173.413 112.965L172.927 112.164ZM168.694 117.086L169.537 117.495V117.495L168.694 117.086ZM168.661 134.936L167.814 135.339V135.339L168.661 134.936ZM172.795 139.825L172.315 140.63V140.63L172.795 139.825ZM182.639 140.153L183.134 140.95L183.143 140.943L182.639 140.153ZM185.592 136.544L184.738 136.158L184.734 136.167L185.592 136.544ZM186.741 130.539L187.678 130.556L187.695 129.602H186.741V130.539ZM177.717 129.948L177.191 130.724L177.207 130.735L177.223 130.745L177.717 129.948ZM177.684 126.011L178.204 126.791L178.211 126.787L177.684 126.011ZM192.975 126.438L192.28 127.067L192.285 127.073L192.29 127.078L192.975 126.438ZM191.794 139.136L192.613 139.591L192.615 139.588L191.794 139.136ZM185.986 144.911L186.417 145.743L186.423 145.74L185.986 144.911ZM177.717 146.814V145.877C175.504 145.877 173.379 145.512 171.339 144.783L171.024 145.666L170.708 146.549C172.955 147.351 175.293 147.752 177.717 147.752V146.814ZM171.024 145.666L171.347 144.786C169.332 144.046 167.519 142.894 165.903 141.319L165.249 141.991L164.594 142.662C166.391 144.413 168.427 145.711 170.7 146.546L171.024 145.666ZM165.249 141.991L165.903 141.319C164.311 139.768 163.023 137.736 162.056 135.193L161.18 135.527L160.303 135.86C161.349 138.61 162.774 140.888 164.594 142.662L165.249 141.991ZM161.18 135.527L162.058 135.2C161.123 132.685 160.641 129.609 160.641 125.945H159.703H158.766C158.766 129.763 159.267 133.074 160.301 135.853L161.18 135.527ZM159.703 125.945H160.641C160.641 122.265 161.155 119.196 162.149 116.712L161.278 116.364L160.408 116.016C159.301 118.782 158.766 122.101 158.766 125.945H159.703ZM161.278 116.364L162.15 116.71C163.157 114.169 164.497 112.137 166.152 110.584L165.511 109.9L164.87 109.216C162.981 110.988 161.499 113.265 160.407 116.018L161.278 116.364ZM165.511 109.9L166.148 110.588C167.851 109.009 169.742 107.865 171.823 107.144L171.516 106.258L171.209 105.372C168.871 106.182 166.758 107.466 164.874 109.212L165.511 109.9ZM171.516 106.258L171.823 107.144C173.934 106.412 176.095 106.047 178.308 106.047V105.109V104.172C175.884 104.172 173.516 104.572 171.209 105.372L171.516 106.258ZM178.308 105.109V106.047C180.716 106.047 182.777 106.385 184.507 107.037L184.838 106.159L185.168 105.282C183.18 104.534 180.887 104.172 178.308 104.172V105.109ZM184.838 106.159L184.507 107.037C186.255 107.695 187.741 108.624 188.976 109.819L189.628 109.145L190.28 108.471C188.847 107.086 187.139 106.024 185.168 105.282L184.838 106.159ZM189.628 109.145L189.016 109.855C189.585 110.346 189.953 110.809 190.168 111.238L191.006 110.819L191.845 110.399C191.49 109.691 190.94 109.039 190.24 108.435L189.628 109.145ZM191.006 110.819L190.168 111.238C190.398 111.698 190.495 112.113 190.495 112.492H191.433H192.37C192.37 111.778 192.184 111.077 191.845 110.399L191.006 110.819ZM191.433 112.492H190.495C190.495 113.067 190.291 113.503 189.848 113.872L190.449 114.592L191.049 115.312C191.918 114.588 192.37 113.624 192.37 112.492H191.433ZM190.449 114.592L189.836 113.882C189.36 114.292 188.863 114.475 188.316 114.475V115.412V116.35C189.343 116.35 190.268 115.986 191.061 115.302L190.449 114.592ZM188.316 115.412V114.475C187.894 114.475 187.466 114.367 187.021 114.128L186.577 114.953L186.132 115.779C186.824 116.151 187.556 116.35 188.316 116.35V115.412ZM186.577 114.953L187.021 114.128C186.547 113.872 186.128 113.544 185.761 113.141L185.067 113.772L184.374 114.403C184.882 114.962 185.469 115.422 186.132 115.779L186.577 114.953ZM185.067 113.772L185.775 113.157C184.979 112.241 184.001 111.446 182.854 110.767L182.377 111.573L181.899 112.38C182.896 112.97 183.712 113.641 184.359 114.387L185.067 113.772ZM182.377 111.573L182.866 110.774C181.61 110.005 180.083 109.652 178.341 109.652V110.589V111.527C179.836 111.527 180.999 111.829 181.887 112.373L182.377 111.573ZM178.341 110.589V109.652C176.275 109.652 174.303 110.231 172.44 111.363L172.927 112.164L173.413 112.965C175.006 111.997 176.644 111.527 178.341 111.527V110.589ZM172.927 112.164L172.447 111.358C170.527 112.501 169.005 114.299 167.85 116.677L168.694 117.086L169.537 117.495C170.571 115.367 171.87 113.884 173.406 112.97L172.927 112.164ZM168.694 117.086L167.85 116.677C166.673 119.102 166.116 122.21 166.116 125.945H167.053H167.991C167.991 122.374 168.527 119.576 169.537 117.495L168.694 117.086ZM167.053 125.945H166.116C166.116 129.762 166.66 132.913 167.814 135.339L168.661 134.936L169.508 134.533C168.518 132.453 167.991 129.61 167.991 125.945H167.053ZM168.661 134.936L167.814 135.339C168.944 137.714 170.433 139.506 172.315 140.63L172.795 139.825L173.276 139.02C171.789 138.132 170.521 136.664 169.508 134.533L168.661 134.936ZM172.795 139.825L172.315 140.63C174.136 141.718 176.073 142.272 178.111 142.272V141.334V140.397C176.43 140.397 174.824 139.945 173.276 139.02L172.795 139.825ZM178.111 141.334V142.272C180.005 142.272 181.692 141.844 183.134 140.95L182.639 140.153L182.145 139.357C181.048 140.037 179.717 140.397 178.111 140.397V141.334ZM182.639 140.153L183.143 140.943C184.592 140.019 185.688 138.659 186.451 136.92L185.592 136.544L184.734 136.167C184.096 137.622 183.223 138.668 182.135 139.363L182.639 140.153ZM185.592 136.544L186.447 136.93C187.237 135.182 187.633 133.045 187.678 130.556L186.741 130.539L185.803 130.522C185.761 132.845 185.392 134.712 184.738 136.158L185.592 136.544ZM186.741 130.539V129.602H180.309V130.539V131.477H186.741V130.539ZM180.309 130.539V129.602C179.314 129.602 178.644 129.42 178.212 129.152L177.717 129.948L177.223 130.745C178.059 131.264 179.117 131.477 180.309 131.477V130.539ZM177.717 129.948L178.244 129.173C177.945 128.97 177.736 128.641 177.736 127.98H176.799H175.861C175.861 129.112 176.265 130.096 177.191 130.724L177.717 129.948ZM176.799 127.98H177.736C177.736 127.271 177.95 126.96 178.204 126.791L177.684 126.011L177.164 125.231C176.237 125.849 175.861 126.851 175.861 127.98H176.799ZM177.684 126.011L178.211 126.787C178.61 126.516 179.253 126.325 180.244 126.325V125.387V124.45C179.047 124.45 177.984 124.675 177.158 125.235L177.684 126.011ZM180.244 125.387V126.325H189.891V125.387V124.45H180.244V125.387ZM189.891 125.387V126.325C191.182 126.325 191.897 126.644 192.28 127.067L192.975 126.438L193.67 125.808C192.784 124.831 191.443 124.45 189.891 124.45V125.387ZM192.975 126.438L192.29 127.078C192.706 127.522 192.989 128.25 192.989 129.423H193.927H194.864C194.864 127.972 194.513 126.709 193.66 125.797L192.975 126.438ZM193.927 129.423H192.989C192.989 133.208 192.298 136.278 190.973 138.684L191.794 139.136L192.615 139.588C194.134 136.831 194.864 133.426 194.864 129.423H193.927ZM191.794 139.136L190.974 138.681C189.636 141.09 187.828 142.881 185.549 144.081L185.986 144.911L186.423 145.74C189.044 144.36 191.108 142.3 192.613 139.591L191.794 139.136ZM185.986 144.911L185.555 144.078C183.252 145.271 180.646 145.877 177.717 145.877V146.814V147.752C180.913 147.752 183.82 147.088 186.417 145.743L185.986 144.911ZM227.93 140.744H226.992V141.681H227.93V140.744ZM245.419 141.466L244.909 142.253L244.923 142.261L244.936 142.27L245.419 141.466ZM245.419 145.436L245.911 146.234L245.918 146.23L245.419 145.436ZM227.93 140.744V141.681H242.17V140.744V139.806H227.93V140.744ZM242.17 140.744V141.681C243.511 141.681 244.384 141.912 244.909 142.253L245.419 141.466L245.928 140.679C244.966 140.056 243.673 139.806 242.17 139.806V140.744ZM245.419 141.466L244.936 142.27C245.436 142.569 245.63 142.929 245.63 143.434H246.567H247.505C247.505 142.234 246.933 141.281 245.901 140.662L245.419 141.466ZM246.567 143.434H245.63C245.63 143.942 245.432 144.32 244.92 144.642L245.419 145.436L245.918 146.23C246.936 145.589 247.505 144.633 247.505 143.434H246.567ZM245.419 145.436L244.926 144.638C244.396 144.966 243.516 145.188 242.17 145.188V146.125V147.062C243.668 147.062 244.954 146.825 245.911 146.234L245.419 145.436ZM242.17 146.125V145.188H225.042V146.125V147.062H242.17V146.125ZM225.042 146.125V145.188C223.721 145.188 222.902 144.858 222.407 144.363C221.912 143.868 221.583 143.049 221.583 141.728H220.645H219.708C219.708 143.338 220.111 144.718 221.082 145.689C222.052 146.659 223.432 147.062 225.042 147.062V146.125ZM220.645 141.728H221.583V109.572H220.645H219.708V141.728H220.645ZM220.645 109.572H221.583C221.583 108.212 221.868 107.367 222.278 106.872C222.66 106.411 223.269 106.112 224.287 106.112V105.175V104.237C222.878 104.237 221.666 104.671 220.834 105.676C220.03 106.647 219.708 108 219.708 109.572H220.645ZM224.287 105.175V106.112C225.306 106.112 225.915 106.411 226.297 106.872C226.707 107.367 226.992 108.212 226.992 109.572H227.93H228.867C228.867 108 228.545 106.647 227.741 105.676C226.909 104.671 225.697 104.237 224.287 104.237V105.175ZM227.93 109.572H226.992V140.744H227.93H228.867V109.572H227.93Z" fill="#1B53FE" mask="url(#path-63-outside-1_871_16)"/>
<path d="M107.01 174.75C106.872 174.75 106.803 174.674 106.803 174.523V161.467C106.803 161.316 106.872 161.241 107.01 161.241H108.557C108.694 161.241 108.763 161.316 108.763 161.467V172.976H114.373C114.524 172.976 114.6 173.052 114.6 173.203V174.523C114.6 174.674 114.524 174.75 114.373 174.75H107.01ZM122.838 174.75C122.755 174.75 122.693 174.722 122.652 174.667C122.625 174.612 122.597 174.544 122.57 174.461C122.556 174.351 122.522 174.117 122.467 173.76C122.425 173.402 122.398 173.079 122.384 172.791L122.302 171.986V167.882C122.302 167.222 122.171 166.754 121.91 166.479C121.648 166.204 121.188 166.067 120.528 166.067C119.345 166.067 118.761 166.479 118.775 167.304C118.775 167.456 118.706 167.531 118.568 167.531H117.063C116.912 167.531 116.829 167.401 116.815 167.139C116.747 166.314 117.056 165.654 117.743 165.159C118.431 164.664 119.38 164.417 120.59 164.417C121.841 164.417 122.762 164.699 123.353 165.262C123.958 165.826 124.261 166.692 124.261 167.861V172.234C124.261 172.701 124.268 173.127 124.282 173.512C124.309 173.884 124.343 174.214 124.385 174.502C124.412 174.667 124.343 174.75 124.178 174.75H122.838ZM118.878 174.998C118.08 174.998 117.468 174.757 117.042 174.276C116.616 173.781 116.403 173.072 116.403 172.151C116.403 171.436 116.54 170.859 116.815 170.419C117.104 169.965 117.558 169.614 118.177 169.367C118.809 169.106 119.648 168.934 120.693 168.851L122.611 168.686V170.068L120.713 170.233C119.82 170.316 119.201 170.487 118.857 170.749C118.513 170.996 118.342 171.416 118.342 172.007C118.342 172.447 118.431 172.784 118.61 173.017C118.802 173.237 119.084 173.347 119.455 173.347C119.895 173.347 120.349 173.196 120.817 172.894C121.298 172.591 121.917 172.048 122.673 171.264L122.714 172.832C122.247 173.341 121.807 173.753 121.394 174.069C120.982 174.386 120.569 174.619 120.157 174.771C119.758 174.922 119.332 174.998 118.878 174.998ZM132.306 174.998C131.797 174.998 131.261 174.929 130.697 174.791C130.134 174.654 129.68 174.475 129.336 174.255L129.274 172.626C129.659 172.846 130.079 173.017 130.532 173.141C131 173.251 131.433 173.306 131.832 173.306C132.588 173.306 133.138 173.086 133.482 172.646C133.839 172.192 134.018 171.519 134.018 170.625V168.397C134.018 167.614 133.88 167.043 133.605 166.686C133.344 166.314 132.939 166.129 132.389 166.129C131.921 166.129 131.447 166.266 130.965 166.541C130.498 166.816 129.9 167.291 129.171 167.964L129.13 166.252C129.584 165.84 130.01 165.496 130.409 165.221C130.807 164.946 131.206 164.747 131.605 164.623C132.017 164.486 132.45 164.417 132.904 164.417C133.922 164.417 134.685 164.726 135.194 165.345C135.716 165.964 135.977 166.912 135.977 168.191V170.852C135.977 172.199 135.661 173.231 135.029 173.946C134.41 174.647 133.502 174.998 132.306 174.998ZM127.83 178.566C127.693 178.566 127.624 178.49 127.624 178.339V167.036C127.624 166.706 127.61 166.349 127.583 165.964C127.555 165.579 127.521 165.228 127.48 164.912C127.466 164.747 127.535 164.664 127.686 164.664H129.089C129.24 164.664 129.322 164.733 129.336 164.871C129.364 164.967 129.391 165.104 129.419 165.283C129.446 165.462 129.467 165.641 129.48 165.819C129.494 165.984 129.494 166.108 129.48 166.191L129.584 167.263V178.339C129.584 178.49 129.508 178.566 129.357 178.566H127.83ZM142.806 174.998C142.077 174.998 141.493 174.881 141.053 174.647C140.613 174.399 140.297 174.028 140.104 173.533C139.912 173.038 139.815 172.419 139.815 171.677V166.335H138.248C138.097 166.335 138.021 166.259 138.021 166.108V164.871C138.021 164.733 138.097 164.664 138.248 164.664H139.857L140.104 162.189C140.118 162.038 140.2 161.962 140.352 161.962H141.548C141.685 161.962 141.754 162.038 141.754 162.189L141.775 164.664H144.765C144.917 164.664 144.992 164.733 144.992 164.871V166.108C144.992 166.259 144.917 166.335 144.765 166.335H141.775V171.594C141.775 172.213 141.885 172.653 142.105 172.914C142.325 173.176 142.696 173.306 143.219 173.306C143.494 173.306 143.762 173.279 144.023 173.224C144.298 173.155 144.539 173.072 144.745 172.976C144.924 172.907 145.013 172.962 145.013 173.141V174.399C145.013 174.523 144.951 174.606 144.827 174.647C144.58 174.743 144.284 174.826 143.94 174.894C143.61 174.963 143.232 174.998 142.806 174.998ZM151.365 174.998C149.962 174.998 148.89 174.661 148.147 173.987C147.405 173.299 147.034 172.261 147.034 170.872V168.542C147.034 167.153 147.398 166.122 148.127 165.448C148.869 164.761 149.949 164.417 151.365 164.417C152.781 164.417 153.861 164.761 154.603 165.448C155.346 166.122 155.717 167.153 155.717 168.542V170.872C155.717 172.261 155.346 173.299 154.603 173.987C153.874 174.661 152.795 174.998 151.365 174.998ZM151.365 173.286C152.204 173.286 152.809 173.072 153.18 172.646C153.565 172.22 153.757 171.567 153.757 170.687V168.707C153.757 167.841 153.565 167.194 153.18 166.768C152.809 166.342 152.204 166.129 151.365 166.129C150.526 166.129 149.921 166.342 149.55 166.768C149.179 167.194 148.993 167.841 148.993 168.707V170.687C148.993 171.567 149.179 172.22 149.55 172.646C149.921 173.072 150.526 173.286 151.365 173.286ZM163.494 174.998C162.985 174.998 162.449 174.929 161.885 174.791C161.322 174.654 160.868 174.475 160.524 174.255L160.462 172.626C160.847 172.846 161.267 173.017 161.72 173.141C162.188 173.251 162.621 173.306 163.02 173.306C163.776 173.306 164.326 173.086 164.67 172.646C165.027 172.192 165.206 171.519 165.206 170.625V168.397C165.206 167.614 165.069 167.043 164.794 166.686C164.532 166.314 164.127 166.129 163.577 166.129C163.109 166.129 162.635 166.266 162.154 166.541C161.686 166.816 161.088 167.291 160.359 167.964L160.318 166.252C160.772 165.84 161.198 165.496 161.597 165.221C161.995 164.946 162.394 164.747 162.793 164.623C163.205 164.486 163.639 164.417 164.092 164.417C165.11 164.417 165.873 164.726 166.382 165.345C166.904 165.964 167.165 166.912 167.165 168.191V170.852C167.165 172.199 166.849 173.231 166.217 173.946C165.598 174.647 164.69 174.998 163.494 174.998ZM159.019 178.566C158.881 178.566 158.812 178.49 158.812 178.339V167.036C158.812 166.706 158.799 166.349 158.771 165.964C158.744 165.579 158.709 165.228 158.668 164.912C158.654 164.747 158.723 164.664 158.874 164.664H160.277C160.428 164.664 160.51 164.733 160.524 164.871C160.552 164.967 160.579 165.104 160.607 165.283C160.634 165.462 160.655 165.641 160.669 165.819C160.682 165.984 160.682 166.108 160.669 166.191L160.772 167.263V178.339C160.772 178.49 160.696 178.566 160.545 178.566H159.019ZM173.664 174.998C172.385 174.998 171.43 174.729 170.797 174.193C170.178 173.643 169.876 172.818 169.89 171.718C169.89 171.594 169.958 171.532 170.096 171.532H171.622C171.746 171.532 171.808 171.594 171.808 171.718C171.808 172.296 171.952 172.715 172.241 172.976C172.543 173.237 173.018 173.368 173.664 173.368C174.31 173.368 174.792 173.265 175.108 173.059C175.438 172.839 175.603 172.529 175.603 172.131C175.603 171.828 175.507 171.574 175.314 171.367C175.135 171.161 174.84 170.969 174.427 170.79L172.076 169.821C171.333 169.504 170.804 169.147 170.488 168.748C170.172 168.349 170.013 167.827 170.013 167.181C170.013 166.259 170.309 165.572 170.9 165.118C171.492 164.651 172.372 164.417 173.54 164.417C174.75 164.417 175.678 164.664 176.325 165.159C176.985 165.641 177.315 166.335 177.315 167.242C177.315 167.38 177.239 167.449 177.088 167.449H175.582C175.445 167.449 175.376 167.339 175.376 167.119C175.376 166.775 175.218 166.507 174.902 166.314C174.599 166.122 174.173 166.026 173.623 166.026C173.073 166.026 172.66 166.122 172.385 166.314C172.11 166.507 171.973 166.796 171.973 167.181C171.973 167.469 172.048 167.689 172.2 167.841C172.351 167.978 172.66 168.15 173.128 168.356L175.479 169.346C176.208 169.635 176.737 169.992 177.067 170.419C177.397 170.831 177.562 171.367 177.562 172.028C177.562 172.99 177.225 173.726 176.552 174.234C175.878 174.743 174.915 174.998 173.664 174.998ZM194.925 174.75C194.87 174.75 194.815 174.743 194.76 174.729C194.719 174.702 194.677 174.674 194.636 174.647L187.356 167.593C186.696 166.947 186.207 166.335 185.891 165.757C185.575 165.166 185.417 164.568 185.417 163.963C185.417 162.932 185.706 162.182 186.283 161.715C186.874 161.234 187.706 160.993 188.779 160.993C189.755 160.993 190.511 161.234 191.047 161.715C191.597 162.196 191.872 162.891 191.872 163.798C191.872 164.224 191.769 164.644 191.563 165.056C191.371 165.455 191.075 165.867 190.676 166.294C190.291 166.706 189.796 167.146 189.191 167.614L187.995 166.5C188.462 166.156 188.847 165.84 189.15 165.551C189.452 165.249 189.672 164.96 189.81 164.685C189.961 164.396 190.037 164.114 190.037 163.839C190.037 163.441 189.927 163.138 189.707 162.932C189.501 162.712 189.157 162.602 188.676 162.602C188.181 162.602 187.823 162.726 187.603 162.973C187.383 163.207 187.273 163.537 187.273 163.963C187.273 164.362 187.397 164.761 187.644 165.159C187.892 165.558 188.284 166.026 188.82 166.562L197.049 174.461C197.132 174.53 197.159 174.599 197.132 174.667C197.118 174.722 197.056 174.75 196.946 174.75H194.925ZM188.841 174.998C187.864 174.998 187.06 174.839 186.427 174.523C185.795 174.207 185.327 173.774 185.025 173.224C184.722 172.674 184.571 172.055 184.571 171.367C184.571 170.721 184.688 170.144 184.922 169.635C185.169 169.112 185.513 168.631 185.953 168.191C186.393 167.737 186.902 167.304 187.479 166.892L188.655 168.026C188.091 168.466 187.644 168.858 187.314 169.202C186.984 169.532 186.751 169.862 186.613 170.192C186.489 170.522 186.427 170.893 186.427 171.306C186.427 171.883 186.647 172.364 187.087 172.749C187.527 173.134 188.174 173.327 189.026 173.327C190.14 173.327 191.02 173.093 191.666 172.626C192.326 172.144 192.794 171.457 193.069 170.563C193.357 169.669 193.502 168.617 193.502 167.407C193.502 167.256 193.577 167.181 193.729 167.181H195.152C195.303 167.181 195.379 167.256 195.379 167.407C195.379 168.975 195.138 170.329 194.657 171.471C194.189 172.598 193.467 173.471 192.491 174.09C191.529 174.695 190.312 174.998 188.841 174.998ZM204.162 174.75C204.024 174.75 203.955 174.674 203.955 174.523L204.244 161.467C204.244 161.316 204.313 161.241 204.45 161.241H206.781C206.891 161.241 206.973 161.296 207.028 161.406L210.576 169.346L214.082 161.406C214.137 161.296 214.22 161.241 214.33 161.241H216.66C216.798 161.241 216.867 161.316 216.867 161.467L217.155 174.523C217.155 174.674 217.087 174.75 216.949 174.75H215.443C215.306 174.75 215.237 174.674 215.237 174.523L215.031 166.727C215.017 166.218 215.017 165.709 215.031 165.201C215.058 164.678 215.086 164.156 215.113 163.633H215.052C214.845 164.156 214.632 164.671 214.412 165.18C214.192 165.689 213.958 166.197 213.711 166.706L210.823 172.935C210.768 173.045 210.686 173.1 210.576 173.1H210.514C210.404 173.1 210.328 173.045 210.287 172.935L207.338 166.624C207.118 166.129 206.898 165.634 206.678 165.139C206.472 164.63 206.272 164.128 206.08 163.633H206.018C206.045 164.128 206.066 164.637 206.08 165.159C206.093 165.668 206.093 166.17 206.08 166.665L205.873 174.523C205.873 174.674 205.805 174.75 205.667 174.75H204.162ZM224.506 174.998C223.104 174.998 222.031 174.661 221.289 173.987C220.546 173.299 220.175 172.261 220.175 170.872V168.542C220.175 167.153 220.539 166.122 221.268 165.448C222.011 164.761 223.09 164.417 224.506 164.417C225.923 164.417 227.002 164.761 227.744 165.448C228.487 166.122 228.858 167.153 228.858 168.542V170.872C228.858 172.261 228.487 173.299 227.744 173.987C227.016 174.661 225.936 174.998 224.506 174.998ZM224.506 173.286C225.345 173.286 225.95 173.072 226.321 172.646C226.706 172.22 226.899 171.567 226.899 170.687V168.707C226.899 167.841 226.706 167.194 226.321 166.768C225.95 166.342 225.345 166.129 224.506 166.129C223.668 166.129 223.063 166.342 222.691 166.768C222.32 167.194 222.134 167.841 222.134 168.707V170.687C222.134 171.567 222.32 172.22 222.691 172.646C223.063 173.072 223.668 173.286 224.506 173.286ZM232.16 174.75C232.022 174.75 231.954 174.674 231.954 174.523V167.139C231.954 166.741 231.94 166.362 231.912 166.005C231.899 165.634 231.864 165.262 231.809 164.891C231.782 164.74 231.851 164.664 232.016 164.664H233.418C233.569 164.664 233.652 164.726 233.666 164.85C233.721 165.111 233.762 165.407 233.789 165.737C233.817 166.067 233.831 166.349 233.831 166.582L233.913 167.717V174.523C233.913 174.674 233.837 174.75 233.686 174.75H232.16ZM233.686 168.418L233.604 166.603C233.892 166.177 234.222 165.806 234.594 165.489C234.979 165.159 235.364 164.898 235.749 164.706C236.134 164.513 236.491 164.417 236.821 164.417C237.069 164.417 237.254 164.437 237.378 164.479C237.488 164.506 237.55 164.582 237.564 164.706C237.591 165.008 237.598 165.324 237.584 165.654C237.584 165.971 237.564 166.273 237.522 166.562C237.495 166.727 237.399 166.789 237.234 166.747C237.137 166.72 237.027 166.699 236.904 166.686C236.78 166.672 236.649 166.665 236.512 166.665C236.182 166.665 235.845 166.741 235.501 166.892C235.171 167.029 234.848 167.229 234.532 167.49C234.229 167.751 233.947 168.061 233.686 168.418ZM243.536 174.998C242.161 174.998 241.116 174.681 240.401 174.049C239.686 173.416 239.329 172.488 239.329 171.264V168.459C239.329 167.139 239.68 166.136 240.381 165.448C241.096 164.761 242.141 164.417 243.516 164.417C244.891 164.417 245.929 164.754 246.63 165.427C247.345 166.101 247.703 167.077 247.703 168.356V169.965C247.703 170.102 247.634 170.171 247.496 170.171H241.268V170.831C241.268 171.697 241.453 172.33 241.825 172.729C242.196 173.127 242.794 173.327 243.619 173.327C244.238 173.327 244.712 173.231 245.042 173.038C245.386 172.832 245.558 172.529 245.558 172.131C245.558 171.979 245.633 171.904 245.785 171.904H247.311C247.421 171.904 247.49 171.966 247.517 172.089C247.572 173.011 247.242 173.726 246.527 174.234C245.826 174.743 244.829 174.998 243.536 174.998ZM241.268 168.624H245.764V168.521C245.764 167.682 245.578 167.071 245.207 166.686C244.836 166.287 244.286 166.087 243.557 166.087C242.787 166.087 242.21 166.294 241.825 166.706C241.453 167.105 241.268 167.717 241.268 168.542V168.624Z" fill="#888888"/>
</g>
<defs>
<clipPath id="clip0_871_16">
<rect width="283" height="283" fill="white"/>
</clipPath>
</defs>
</svg>
